<?xml version="1.0" encoding="utf-8"?>
<!-- Generator: Adobe Illustrator 21.1.0, SVG Export Plug-In . SVG Version: 6.00 Build 0)  -->
<svg version="1.1" id="Layer_1" xmlns="http://www.w3.org/2000/svg" xmlns:xlink="http://www.w3.org/1999/xlink" x="0px" y="0px"
	 viewBox="0 0 200 60" style="enable-background:new 0 0 200 60;" xml:space="preserve">
<style type="text/css">
	.st0{fill:#FFFFFF;}
</style>
<polygon class="st0" points="169.5,9.5 175.8,22.3 190,24.4 179.8,34.4 182.2,48.5 169.5,41.8 156.9,48.5 159.3,34.4 149,24.4 
	163.2,22.3 "/>
<g>
	<path class="st0" d="M20.8,17.6H25L14.8,44.6h-4.2L20.8,17.6z"/>
	<path class="st0" d="M38.2,21.1c2.1-2.2,4.8-3.2,8.1-3.2c4.4,0,7.6,1.4,9.6,4.3c1.1,1.6,1.7,3.3,1.8,4.9h-5.5
		c-0.3-1.3-0.8-2.2-1.3-2.8c-1-1.1-2.4-1.7-4.3-1.7c-2,0-3.5,0.8-4.6,2.4c-1.1,1.6-1.7,3.9-1.7,6.8c0,2.9,0.6,5.1,1.8,6.6
		s2.7,2.2,4.5,2.2c1.9,0,3.3-0.6,4.3-1.9c0.5-0.7,1-1.7,1.4-3h5.4c-0.5,2.9-1.7,5.2-3.6,7c-1.9,1.8-4.4,2.7-7.4,2.7
		c-3.7,0-6.7-1.2-8.8-3.6c-2.1-2.4-3.2-5.8-3.2-10C34.5,27.1,35.7,23.6,38.2,21.1z"/>
	<path class="st0" d="M82.2,42.3c-2,2-4.9,3.1-8.6,3.1s-6.6-1-8.6-3.1c-2.7-2.5-4-6.1-4-10.8c0-4.8,1.3-8.4,4-10.8
		c2-2,4.9-3.1,8.6-3.1s6.6,1,8.6,3.1c2.6,2.4,4,6,4,10.8C86.2,36.2,84.9,39.8,82.2,42.3z M78.8,38.3c1.3-1.6,1.9-3.9,1.9-6.8
		c0-2.9-0.6-5.2-1.9-6.8c-1.3-1.6-3-2.4-5.2-2.4s-3.9,0.8-5.2,2.4c-1.3,1.6-1.9,3.9-1.9,6.8c0,3,0.6,5.2,1.9,6.8
		c1.3,1.6,3,2.4,5.2,2.4S77.5,39.9,78.8,38.3z"/>
	<path class="st0" d="M105.8,19c1.8,0.6,3.3,1.7,4.5,3.3c0.9,1.3,1.5,2.7,1.9,4.2c0.3,1.5,0.5,3,0.5,4.3c0,3.5-0.7,6.4-2.1,8.9
		c-1.9,3.3-4.8,4.9-8.8,4.9H90.4V18.4h11.3C103.3,18.4,104.7,18.6,105.8,19z M95.7,23v17.1h5.1c2.6,0,4.4-1.3,5.4-3.8
		c0.6-1.4,0.8-3.1,0.8-5c0-2.7-0.4-4.7-1.3-6.2c-0.8-1.4-2.5-2.1-5-2.1H95.7z"/>
	<path class="st0" d="M136.1,23h-13.9v5.6H135v4.6h-12.8v6.7h14.5v4.7h-19.9V18.4h19.3V23z"/>
</g>
</svg>
